<?xml version="1.0" encoding="UTF-8"?>
<svg id="Ebene_2" data-name="Ebene 2" xmlns="http://www.w3.org/2000/svg" viewBox="0 0 50 50">
  <defs>
    <style>
      .cls-1 {
        fill: #787f8c;
      }

      .cls-1, .cls-2 {
        stroke-width: 0px;
      }

      .cls-2 {
        fill: #171b25;
      }
    </style>
  </defs>
  <path class="cls-2" d="m49.59,25.05c-.03,13.6-11.08,24.57-24.7,24.54-13.59-.03-24.53-11.09-24.49-24.74C.45,11.32,11.5.38,25.09.41c13.53.03,24.53,11.09,24.5,24.64Zm-38.01,13.34c1.73,0,3.28.04,4.83-.03.47-.02,1.03-.25,1.36-.58,4.28-4.23,8.52-8.49,12.77-12.73,1.03-1.02,2.08-2.01,3.05-2.95-1.94-1.96-3.76-3.8-5.59-5.65-.06.04-.15.09-.22.16-5.26,5.25-10.52,10.5-15.77,15.76-.2.2-.41.49-.41.74-.04,1.71-.02,3.42-.02,5.27Zm23.76-17.98c.89-.94,1.76-1.84,2.6-2.77.61-.68.62-1.47-.02-2.14-1.12-1.17-2.27-2.31-3.44-3.44-.56-.54-1.29-.71-1.89-.18-1.02.91-1.94,1.93-2.9,2.89,1.86,1.86,3.66,3.65,5.64,5.64Z"/>
  <path class="cls-1" d="m11.59,38.39c1.73,0,3.28.04,4.83-.03.47-.02,1.03-.25,1.36-.58,4.28-4.23,8.52-8.49,12.77-12.73,1.03-1.02,2.08-2.01,3.05-2.95-1.94-1.96-3.76-3.8-5.59-5.65-.06.04-.15.09-.22.16-5.26,5.25-10.52,10.5-15.77,15.76-.2.2-.41.49-.41.74-.04,1.71-.02,3.42-.02,5.27Z"/>
  <path class="cls-1" d="m35.35,20.41c.89-.94,1.76-1.84,2.6-2.77.61-.68.62-1.47-.02-2.14-1.12-1.17-2.27-2.31-3.44-3.44-.56-.54-1.29-.71-1.89-.18-1.02.91-1.94,1.93-2.9,2.89,1.86,1.86,3.66,3.65,5.64,5.64Z"/>
</svg>