<?xml version="1.0" encoding="utf-8"?>
<!-- Svg Vector Icons : http://www.onlinewebfonts.com/icon -->
<!DOCTYPE svg PUBLIC "-//W3C//DTD SVG 1.1//EN" "http://www.w3.org/Graphics/SVG/1.1/DTD/svg11.dtd">
<svg version="1.1" xmlns="http://www.w3.org/2000/svg" xmlns:xlink="http://www.w3.org/1999/xlink" x="0px" y="0px" viewBox="0 0 256 256" enable-background="new 0 0 256 256" xml:space="preserve">
<metadata> Svg Vector Icons : http://www.onlinewebfonts.com/icon </metadata>
<g><g><g>
<path fill="#fff" d="M23.7,4.1c-5.1,1.2-10,5.4-12.3,10.4L10,17.4v110.6v110.6l1.4,2.9c1.8,3.8,5.5,7.6,9.3,9.3l3,1.4h56.6h56.6l2.8-1.3c3.3-1.5,6.8-4.7,8.5-7.5c2.6-4.5,2.6-3.2,2.6-57.2v-49.9h-4.1h-4.1l-0.1,29l-0.1,29.1l-62.1,0.1L18,194.7v-79v-79h62.2h62.2v27v27h4.1h4.1V55.2c0-38.1,0-38.2-2.6-42.5c-1.7-2.9-5.2-6-8.5-7.5l-2.8-1.3L81.2,3.7C49.8,3.7,24.8,3.9,23.7,4.1z M83,17.3c1.2,1.1,1.5,3.6,0.6,5.3c-0.8,1.6-3.3,1.9-12,1.9c-9.4,0-10.7-0.3-11.8-2.9c-0.7-1.7,0-4,1.4-4.9c0.4-0.2,5.3-0.5,10.7-0.5C81.5,16.2,82,16.3,83,17.3z M99.6,17.3c1.5,1.7,1.7,2.7,0.9,4.5c-0.9,2.1-2.9,2.9-6.7,2.6c-2.5-0.2-3.2-0.4-4.2-1.6c-1.5-1.8-1.5-3.9,0.1-5.4c1-1.1,1.6-1.2,5-1.2C98.1,16.2,98.7,16.4,99.6,17.3z M87.2,208.5c3.1,1.5,6.8,5.2,8.3,8.5c0.8,1.8,1.1,3.2,1.1,6.4c0,3.7-0.1,4.5-1.6,7.4c-2.8,5.7-7.5,8.8-14,9c-3.1,0.1-4.5,0-6.7-0.9c-3.6-1.3-7.1-4.5-8.9-8.1c-1.3-2.5-1.5-3.3-1.5-7.2c0-3.7,0.2-4.8,1.3-7.1c2.1-4.5,6-7.8,10.6-9.1C79.1,206.5,84,207,87.2,208.5z"/>
<path fill="#fff" d="M77.6,215.6c-1.8,0.6-4.1,2.7-5,4.7c-1.5,3.4-0.2,7.8,2.8,9.9c2.1,1.6,6.3,1.8,8.7,0.5c4.7-2.5,5.7-8.8,2.2-12.7C84,215.5,80.9,214.6,77.6,215.6z"/>
<path fill="#fff" d="M184,58.5c-3.4,2-5,5.8-4.1,9.4c0.5,1.8,2.9,4.4,19.1,20.7l18.5,18.6l-70,0.1l-70,0.1l-1.8,1.2c-2.4,1.6-3.7,4.2-3.7,7c0,3.3,1.6,5.8,4.6,7.4c1.3,0.8,7.5,0.8,71,1.1l69.5,0.2l-18.3,18.5c-20,20.2-20.1,20.2-19,24.4c1.4,5,6.4,7.7,11.1,6c1.6-0.6,53.3-52,54.4-54.1c0.8-1.7,0.9-5.6,0-7.1c-0.8-1.5-51-51.9-53.2-53.3C190,57.3,186.2,57.1,184,58.5z"/></g></g></g>
</svg>