<?xml version="1.0" encoding="UTF-8"?>
<svg id="Ebene_2" data-name="Ebene 2" xmlns="http://www.w3.org/2000/svg" viewBox="0 0 50 50">
  <defs>
    <style>
      .cls-1 {
        fill: #787f8c;
        stroke-width: 0px;
      }
    </style>
  </defs>
  <path class="cls-1" d="m46.2,41.52c-4.24-4.24-8.48-8.48-12.72-12.72-.95-.95-1.47-1.04-2.59-.48-.63-.62-1.24-1.23-1.87-1.86.02-.03.07-.1.12-.17,2.45-3.33,3.45-7.05,2.7-11.11-1.1-5.96-4.67-9.82-10.46-11.58-.9-.28-1.87-.36-2.8-.53h-1.97c-.95.17-1.92.29-2.85.53-5.73,1.49-10.07,6.63-10.61,12.51-.01.14-.05.27-.08.41v2.14c.08.49.15.98.24,1.47,1.91,10.58,14.31,15.48,22.93,9.05.1-.07.2-.14.25-.17.64.64,1.24,1.24,1.85,1.85-.53,1.02-.47,1.67.26,2.4,4.35,4.35,8.7,8.7,13.05,13.05.81.81,1.79.81,2.61,0,.65-.64,1.29-1.29,1.94-1.94.99-.99.99-1.9,0-2.88Zm-28.69-12.88c-6.18-.07-11.07-5.04-11.01-11.19.05-6.12,5.09-11.01,11.26-10.94,6.01.07,10.94,5.09,10.88,11.11-.06,6.15-5.05,11.11-11.13,11.03Z"/>
</svg>