<?xml version="1.0" encoding="UTF-8"?>
<svg id="Ebene_2" data-name="Ebene 2" xmlns="http://www.w3.org/2000/svg" viewBox="0 0 50 50">
  <defs>
    <style>
      .cls-1 {
        fill: #787f8c;
        stroke-width: 0px;
      }
    </style>
  </defs>
  <path class="cls-1" d="m14.84,33.74c-.59.02-1.18,0-1.81,0v-.48c0-5.79,0-11.57,0-17.36,0-2.33,0-4.67,0-7,0-.98-.65-1.62-1.62-1.63-.62,0-1.24-.04-1.86.01-.34.03-.71.17-1,.36-.5.34-.58.9-.58,1.48,0,8,0,16,0,24v.63c-.7,0-1.35,0-1.99,0-.67,0-1.09.34-1.1,1.01,0,.37.1.79.3,1.09,1.5,2.15,3.03,4.26,4.55,6.39.51.71,1.02.7,1.53-.02,1.16-1.62,2.32-3.24,3.49-4.87.38-.53.76-1.05,1.13-1.58.34-.49.34-1.01.09-1.53-.24-.49-.68-.51-1.14-.49Z"/>
  <path class="cls-1" d="m45.11,16.41h-20.91c-.55,0-1,.45-1,1s.45,1,1,1h20.91c.55,0,1-.45,1-1s-.45-1-1-1Z"/>
  <path class="cls-1" d="m40.31,26.11h-16.11c-.55,0-1,.45-1,1s.45,1,1,1h16.11c.55,0,1-.45,1-1s-.45-1-1-1Z"/>
  <path class="cls-1" d="m35.31,35.8h-11.11c-.55,0-1,.45-1,1s.45,1,1,1h11.11c.55,0,1-.45,1-1s-.45-1-1-1Z"/>
</svg>