<?xml version="1.0" encoding="UTF-8"?>
<svg id="Ebene_2" data-name="Ebene 2" xmlns="http://www.w3.org/2000/svg" viewBox="0 0 50 50">
  <defs>
    <style>
      .cls-1 {
        fill: #787f8c;
        stroke-width: 0px;
      }
    </style>
  </defs>
  <path class="cls-1" d="m19.68,6.8h-10.53c-1.3,0-2.35,1.05-2.35,2.35v10.53c0,1.3,1.05,2.35,2.35,2.35h10.53c1.3,0,2.35-1.05,2.35-2.35v-10.53c0-1.3-1.05-2.35-2.35-2.35Zm.35,12.88c0,.19-.16.35-.35.35h-10.53c-.19,0-.35-.16-.35-.35v-10.53c0-.19.16-.35.35-.35h10.53c.19,0,.35.16.35.35v10.53Z"/>
  <path class="cls-1" d="m40.85,6.8h-10.53c-1.3,0-2.35,1.05-2.35,2.35v10.53c0,1.3,1.05,2.35,2.35,2.35h10.53c1.3,0,2.35-1.05,2.35-2.35v-10.53c0-1.3-1.05-2.35-2.35-2.35Zm.35,12.88c0,.19-.16.35-.35.35h-10.53c-.19,0-.35-.16-.35-.35v-10.53c0-.19.16-.35.35-.35h10.53c.19,0,.35.16.35.35v10.53Z"/>
  <path class="cls-1" d="m19.68,27.97h-10.53c-1.3,0-2.35,1.05-2.35,2.35v10.53c0,1.3,1.05,2.35,2.35,2.35h10.53c1.3,0,2.35-1.05,2.35-2.35v-10.53c0-1.3-1.05-2.35-2.35-2.35Zm.35,12.88c0,.19-.16.35-.35.35h-10.53c-.19,0-.35-.16-.35-.35v-10.53c0-.19.16-.35.35-.35h10.53c.19,0,.35.16.35.35v10.53Z"/>
  <path class="cls-1" d="m40.85,27.97h-10.53c-1.3,0-2.35,1.05-2.35,2.35v10.53c0,1.3,1.05,2.35,2.35,2.35h10.53c1.3,0,2.35-1.05,2.35-2.35v-10.53c0-1.3-1.05-2.35-2.35-2.35Zm.35,12.88c0,.19-.16.35-.35.35h-10.53c-.19,0-.35-.16-.35-.35v-10.53c0-.19.16-.35.35-.35h10.53c.19,0,.35.16.35.35v10.53Z"/>
</svg>
