<?xml version="1.0" encoding="UTF-8"?>
<svg id="Ebene_2" data-name="Ebene 2" xmlns="http://www.w3.org/2000/svg" viewBox="0 0 50 50">
  <defs>
    <style>
      .cls-1 {
        fill: #787f8c;
        stroke-width: 0px;
      }
    </style>
  </defs>
  <path class="cls-1" d="m47.05,5.77H2.95c-1.37,0-2.48,1.11-2.48,2.48v33.5c0,1.37,1.11,2.48,2.48,2.48h44.1c1.37,0,2.48-1.11,2.48-2.48V8.25c0-1.37-1.11-2.48-2.48-2.48Zm-14.36,1.95v34.56h-13.65V7.72h13.65ZM2.42,41.75V8.25c0-.29.24-.53.53-.53h14.13v34.56H2.95c-.29,0-.53-.24-.53-.53Zm45.15,0c0,.29-.24.53-.53.53h-12.41V7.72h12.41c.29,0,.53.24.53.53v33.5Z"/>
</svg>