<?xml version="1.0" encoding="UTF-8"?>
<svg id="Ebene_2" data-name="Ebene 2" xmlns="http://www.w3.org/2000/svg" viewBox="0 0 50 50">
  <defs>
    <style>
      .cls-1 {
        fill: #fff;
        stroke-width: 0px;
      }
    </style>
  </defs>
  <path class="cls-1" d="m49.22,21.17h-1.7v-5.91c0-2.37-1.93-4.3-4.3-4.3h-2.35l-3.54-6.76c-.56-.97-1.78-1.33-2.78-.82l-6.98,3.56-1.59-2.74c-.56-.97-1.78-1.33-2.78-.82l-14.85,7.57h-4.24C1.74,10.97-.19,12.9-.19,15.27v27.27c0,2.37,1.93,4.3,4.3,4.3h39.11c2.37,0,4.3-1.93,4.3-4.3v-5.81h1.7c.54,0,.97-.44.97-.97v-13.6c0-.54-.44-.97-.97-.97Zm-13.93-16.34c.23-.12.52-.04.63.16l3.13,5.97h-15.78l12.02-6.13Zm-11.35,0c.23-.12.52-.03.65.19l1.55,2.67-6.42,3.28h-7.8l12.02-6.13Zm21.97,37.7c0,1.48-1.2,2.68-2.68,2.68H4.11c-1.48,0-2.68-1.2-2.68-2.68V15.27c0-1.48,1.2-2.68,2.68-2.68h39.11c1.48,0,2.68,1.2,2.68,2.68v5.91h-8.45c-2.61,0-4.73,2.12-4.73,4.73v6.1c0,2.61,2.12,4.73,4.73,4.73h8.45v5.81Zm2.67-7.43h-11.13c-1.71,0-3.11-1.39-3.11-3.11v-6.1c0-1.71,1.4-3.11,3.11-3.11h11.13v12.32Z"/>
  <path class="cls-1" d="m40.38,30.86c1.08,0,1.95-.88,1.95-1.95s-.88-1.95-1.95-1.95-1.95.88-1.95,1.95.88,1.95,1.95,1.95Z"/>
</svg>