<?xml version="1.0" encoding="UTF-8"?>
<svg id="Ebene_2" data-name="Ebene 2" xmlns="http://www.w3.org/2000/svg" viewBox="0 0 107.07 97.56">
	<defs>
		<style>
			.cls-1 {
				fill: #505157;
				stroke-width: 0px;
			}

			@media (prefers-color-scheme: dark) {
				.cls-1 {
					fill: #fff;
				}
			}
		</style>
	</defs>
	<g>
		<path class="cls-1" d="m15.05,50.77v-17.95l3.57,15.72c.83-.46,1.65-.87,2.42-1.21.73-.32,1.51-.55,2.27-.31,1.24.39,2.19,1.46,3.21,2.37l3.77-16.58v18.62c1.42.51,3.47.84,4.7.52.92-.24,1.43-.77,2.1-1.47v-21.98h-11.11l-3.31,17.49-3.31-17.49h-11.11v28.09c1.9-2.08,4.32-4.12,6.79-5.83Z"/>
		<path class="cls-1" d="m48.73,53.57c3.44-.04,6.78-2.54,9.46-4.21h-9.92v-5.18h10.8v-5.74h-10.8v-5.18h11.16v-5.23h-19.14v19.41c8.1-6.76,2.67,6.63,8.43,6.12Z"/>
		<path class="cls-1" d="m76.22,49.63v-16.36h6.85v-5.23h-21.68v5.23h6.85v19.87c2.31-1.76,5.02-5.51,7.97-3.51Z"/>
		<path class="cls-1" d="m86.22,53.4l1.36-4.91h7.79s.75,2.7.75,2.7c.7-.42,1.33-.88,1.88-1.34,1.56-1.31,3.65-.3,5.41,1.44l-6.68-22.76h-10.51l-7.1,24.21c1.3.53,4.11.76,7.1.67Zm5.26-20.62l3.19,11.41h-6.38l3.19-11.41Z"/>
	</g>
	<g>
		<path class="cls-1" d="m70.32,81.42c-6.98,7.54-13.45,11.42-15.52,12.57-2.08-1.14-8.53-5.01-15.52-12.57h-4.28c9.57,11.16,18.71,15.62,19.11,15.81l.69.33.69-.33c.4-.19,9.53-4.66,19.11-15.81h-4.28Z"/>
		<path class="cls-1" d="m16.91,22.44c-.06-1.5-.11-3-.11-4.52v-1.51c21.38-.42,34.31-9.26,38-12.16,3.69,2.91,16.62,11.74,38,12.16v1.51c0,1.53-.05,3.03-.11,4.52h3.2c.05-1.5.11-3,.11-4.52v-4.69h-1.6C69.63,13.22,56.02,1.1,55.88.98l-1.08-.98-1.08.98c-.13.12-13.75,12.24-38.52,12.24h-1.6v4.69c0,1.52.05,3.03.11,4.52h3.2Z"/>
		<g>
			<path class="cls-1" d="m42.4,55.31c.05-.2-.18-.35-.35-.23l-.93.65c-.51.57-1.09.12-.69-.47l2.38-3.81c.62-.76-.46-1.55-1.18-.64-4.73,5.95-8.9,14.6-8.9,14.6,0,0,.6-2.82.69-6.34.09-3.52-2.93-2.71-4.45-1.53-.94.73-3.22,4.13-5.65,8.13-1.53.06-3.44.15-5.49.26,1.34-4.26,2.72-8.25,3.67-9.98.78-1.43,1.69-3.25,2.05-3.98.08-.17,0-.37-.19-.43l-.36-.1c-.3-.09-.63.02-.82.26l-1.44,1.82c-.25.32-.86.72-1.71.76-.63.03-2.44-.89-8.57,6.43l-4.28,6.08c-1.52.17-2.73.36-3.41.56-2.22.66-1.67.99-.83,1.07.86.08,1.09.6.02.71-1.61.18-3.57.77.31.76.52,0,1.12,0,1.74-.02l-2.99,4.25s-3.08,3.48,2.17-.93c.47-.4.92-.13.45.38l-1.01,1.38c-.13.2.1.45.32.33.72-.39,2.25-1.6,5.48-5.14l.3-.42c2.42-.1,4.4-.2,4.4-.2h.06c-.64,2.15-1.12,3.89-1.24,4.43-.19.83-.24,1.68-.14,2.52.06.54.14,1.15.24,1.69.06.33.53.35.63.03l.3-1c.16-.75.67-.68.55.02l-.13,2.57c0,.24.36.28.41.04.39-1.52,1.61-5.96,3.03-10.67l4.7-.47c-2.42,4.17-4.7,8.44-5.62,10.73-.12.29.19.55.43.34l3.68-4.05c.99-.98.89-.25.77.15l-.33,1.36c-.04.16.33.17.4,0l8.46-13.19-.8,7.24c-.06.53,0,1.07.23,1.54.32.65.79,1,1.28,1.17.93.32,1.92-.12,2.45-.93,1.54-2.33,5.17-8.06,7.09-12.17,1.5-3.22,2.66-4.85,2.82-5.53Zm-25.81,4.34c-.77,1.67-1.6,4.09-2.37,6.46-1.05.06-2.82.13-3.83.21l4.99-6.97c.5-.82,1.63-.6,1.21.3Z"/>
			<path class="cls-1" d="m101.58,54.37s0,0,0,0c.02,0,.04,0,.06.01l-.06-.02Z"/>
			<path class="cls-1" d="m99.04,67.29s-.17-.23-.33-.45c.86-.26,1.66-.55,2.34-.87,3.62-1.51,8.86-4.45,4.15-7.35-1.41-.87-3.02-1.41-4.69-1.72l1.33-1.65c.2-.31.08-.72-.26-.87-.24-.08-.51.01-.64.23l-1.8,2.09c-.15-.02-.31-.04-.46-.05l.81-2.61c.13-.43-.45-.71-.71-.34l-2.04,2.85c-2.28-.03-4.46.22-6.18.51-1.36.23-2.42.49-3.01.64-.65-.48-1.36-.72-1.88-.88-5.81-1.77-13.08,1.28-13.14,1.3.14-.34,1.7-2.29,1.7-2.29.06-.3-.31-.5-.53-.29l-.24.23c-.16.15-.42,0-.35-.21l.76-2.24c.11-.31-.19-.42-.39-.16-1.45,1.89-5.01,6.66-8.61,11.91-1.16-.06-2.21-.07-3.15-.04,2.91-4.64,4.94-9.03,2.67-9h-.9c-.41.02-.82.19-1.03.53-.82,1.37-3.41,5.29-6.06,9.36-1.21.34-2.53.86-4.21,1.83-1.96,1.13-4.49,3.16-7.37,3.79-.58.13-2.55.51-3.09-.3-.24-.36-.25-1.02-.26-1.14-.01-.47.09-.86.17-1.1.45-1.75,1.72-2.76,2.86-3.76,1.32-1.15,2.54-1.81,3.61-2.37,1.27-.67,3.21-1.41,3.21-1.41-.15,2.37.95,2.48,1.89,2.15.71-.24,1.27-.75,1.73-1.32l4.54-6.27c.17-.23.11-.65-.31-.53l-.76.34c-.52.3-.67-.21-.19-.64l1.4-1.39c.61-.45.06-.93-.54-.53-.76.51-1.6,1.08-2.34,1.69-1.18.97-2.26,1.86-3.79,1.99-.25.02-.51.05-.77.09-5.97.83-9.75,4.97-11.74,7.16-1.43,1.56-3.47,5.15-3.6,6.93-.03.48-.09,1.29.26,2.07.53,1.2,1.73,1.71,2.28,1.94.71.31,2.68.99,6.36-.17,2.69-.85,3.99-2.22,7.78-4.59-2.03,3.18-3.66,5.86-3.93,6.7-.72,2.23,3.99-3.96,3.76-1.57-.1,1.04,2.97-2.57,6.03-6.96,1.12-.09,2.26-.13,3.23-.14-1.62,2.45-3.15,4.89-4.4,7.1-.24.42-.39.88-.46,1.36-.03.22.23.37.4.21l.38-.35c.21-.19.43-.13.38.15l.18,1.32c-.04.25.27.39.44.21l10.31-14.61c.77-.96,1.32-1.58,2.15-2.33.98-.88,2.2-1.7,3.48-2.12,1.03-.34,1.66.32-.49,2.05-1.22.98-4.93,4.32-6.08,7.88-.48,1.5-.81,3.01.28,4.45,1.31,1.73,4.03,1.42,5.56,1.24,2.59-.3,4.36-1.5,5.9-2.54,1.53-1.03,2.59-2.07,3.72-3.36h0s2.47-.24,2.47-.24c0,0,.6-.05,1.58-.15l-3.39,6.4c-.12.25.23.47.41.24l1.3-2.09c.14-.19.44-.04.37.19l.06.7c.08.48.72.32.97-.1.99-1.64,3.26-5.78,4.17-5.85,1.5-.12,2.24-.24,2.7-.27.43-.03.83.21,1.02.59l.22.44,3.5,7.3c.24.37,1.2,2.03,1.2,2.03.2.09.87-.23.85-.45l-.51-2.59c-.02-.16.17-.27.3-.19,1.47.93,3.06,4.08,3.83,5.23.26.38.87.1.73-.34-1.57-5.02-7.11-12.68-7.11-12.68Zm-15.86-1.98c-2.13,2.79-6.88,7.29-9.81,6.76-1.35-.3-1.84-1.02-.51-3.48.54-.97,3.88-5.15,7.53-7.9,1.12-.84,2.36-.8,3.14-.55,1.9.87,1.42,2.81-.34,5.16Zm3.68.76c1.21-1.62,1.54-2.49,1.73-3.12.23-.8.6-2.04.31-3.26,0,0,0,0,0,0h0s0,0,0,0c.3-.06,1.38-.25,2.61-.34.37-.03,1.43-.1,2.81,0,.13,0,.25.02.37.03l-4.46,6.22c-.99.15-2.09.3-3.37.48Zm8.26-1.66c-.29.11-.58.21-.87.3l3.77-4.73c.48.13.97.27,1.51.43,1.79.52,1.87.69,1.89.79.14.8-2.85,1.93-6.3,3.21Z"/>
		</g>
	</g>
</svg>
