<?xml version="1.0" encoding="UTF-8"?>
<svg id="Ebene_1" data-name="Ebene 1" xmlns="http://www.w3.org/2000/svg" viewBox="0 0 150.68 72.64">
  <defs>
    <style>
      .cls-1 {
        fill: #505157;
      }
    </style>
  </defs>
  <g>
    <path class="cls-1" d="m20.85,31.49V6.63l5.08,22.04c1.08-.71,2.15-1.46,3.22-1.93,1.01-.44,2.1-.76,3.14-.43,1.72.54,3.04,2.03,4.44,3.29l5.22-22.96v25.79c1.96.71,4.8,1.16,6.51.71,1.28-.33,1.99-1.07,2.9-2.03V.65h-15.38l-4.58,24.22L26.82.65h-15.38v39.55c2.64-2.89,5.98-6.34,9.41-8.71Z"/>
    <path class="cls-1" d="m67.5,35.36c4.76-.06,9.39-3.52,13.1-5.83h-13.73v-7.18h14.97v-7.95h-14.97v-7.17h15.46V0h-26.51v29.01c12.33-11.63,4.69,6.61,11.68,6.35Z"/>
    <path class="cls-1" d="m105.57,29.9V7.24h9.49V0h-30.03v7.24h9.49v28.45c4.24-4.33,7.94-10.34,11.05-5.79Z"/>
    <path class="cls-1" d="m119.42,35.12l1.88-6.81h10.8s1.11,3.9,1.11,3.9c.9-.7,1.58-1.53,2.4-2.09,2.35-1.63,5.19-.35,7.63,2.06L133.99.65h-14.56l-9.84,33.53c1.36,1.13,5.69,1.06,9.83.93Zm7.28-28.56l4.42,15.8h-8.83l4.42-15.8Z"/>
  </g>
  <g>
    <path class="cls-1" d="m59.67,37.77c.07-.28-.26-.48-.5-.32l-1.31.9c-.72.79-1.53.16-.97-.66l3.35-5.28c.88-1.05-.65-2.14-1.66-.89-6.65,8.25-12.53,20.22-12.53,20.22,0,0,.85-3.9.97-8.78.12-4.88-4.12-3.75-6.27-2.12-1.32,1.01-4.54,5.72-7.95,11.26-2.15.09-4.84.21-7.73.36,1.88-5.9,3.83-11.42,5.16-13.83,1.1-1.98,2.37-4.5,2.88-5.51.12-.24-.01-.52-.27-.59l-.51-.15c-.43-.12-.89.02-1.16.36l-2.02,2.52c-.35.44-1.21,1-2.41,1.05-.89.04-3.43-1.24-12.06,8.9l-6.02,8.42c-2.14.24-3.84.5-4.79.77-3.12.91-2.36,1.38-1.16,1.49,1.21.11,1.54.83.02.99-2.27.24-5.02,1.06.43,1.05.74,0,1.57-.01,2.45-.03l-4.36,8.19s-3.93,6.74,3.05-1.29c.57-.65,1.29-.19.63.53l-1.42,1.91c-.18.28.14.62.44.46,1.01-.54,3.32-4.51,7.87-9.42l.43-.59c3.4-.14,6.19-.28,6.19-.28h.09c-.91,2.98-1.57,5.39-1.74,6.13-.27,1.15-.33,2.32-.2,3.49.08.74.2,1.6.34,2.34.09.45.74.48.88.04l.43-1.38c.23-1.04.94-.94.78.02l-.19,3.56c.01.33.5.38.58.06.54-2.11,2.27-8.26,4.26-14.78l6.62-.65c-3.41,5.78-6.61,11.69-7.91,14.86-.16.4.27.76.6.48l5.18-5.62c1.39-1.36,1.25-.35,1.08.2l-.47,1.89c-.05.22.47.24.56,0l11.9-18.27-1.12,10.03c-.08.73,0,1.48.33,2.14.44.91,1.12,1.38,1.81,1.62,1.3.45,2.7-.16,3.45-1.28,2.17-3.22,7.27-11.16,9.97-16.86,2.11-4.46,3.74-6.72,3.97-7.66Zm-36.32,6.02c-1.09,2.31-2.26,5.66-3.34,8.95-1.47.09-3.96.18-5.38.29l7.02-9.65c.71-1.13,2.29-.84,1.7.42Z"/>
    <path class="cls-1" d="m142.95,36.46s0,0,0,0c.03,0,.06,0,.09.02l-.09-.02Z"/>
    <path class="cls-1" d="m139.38,54.36s-.23-.32-.46-.63c1.21-.36,2.34-.77,3.3-1.21,5.09-2.1,12.46-6.16,5.84-10.18-1.99-1.21-4.26-1.95-6.61-2.38l1.87-2.28c.28-.43.11-.99-.36-1.21-.34-.11-.72.02-.91.32l-2.54,2.89c-.22-.02-.43-.05-.65-.07l1.14-3.61c.19-.59-.63-.98-1-.47l-2.87,3.94c-3.21-.05-6.28.31-8.69.71-1.91.32-3.41.67-4.23.88-.91-.66-1.91-.99-2.65-1.21-8.17-2.45-18.4,1.77-18.49,1.81.2-.47,2.39-3.17,2.39-3.17.09-.42-.44-.69-.75-.39l-.34.32c-.22.21-.59-.01-.49-.3l1.08-3.1c.15-.43-.27-.58-.55-.22-2.04,2.62-7.05,9.23-12.12,16.5-1.63-.08-3.11-.1-4.43-.05,4.09-6.43,6.95-12.51,3.76-12.47l-1.27.02c-.57,0-1.15.24-1.44.72-1.15,1.9-4.8,7.33-8.53,12.97-1.7.47-3.56,1.19-5.93,2.53-2.76,1.57-6.32,4.38-10.38,5.25-.82.18-3.59.71-4.35-.41-.34-.49-.36-1.41-.36-1.58-.02-.65.12-1.19.24-1.52.64-2.42,2.42-3.83,4.02-5.2,1.86-1.6,3.58-2.5,5.08-3.28,1.79-.93,4.51-1.95,4.51-1.95-.22,3.28,1.33,3.43,2.67,2.98.99-.33,1.79-1.03,2.44-1.83l6.38-8.68c.24-.32.15-.9-.44-.73l-1.07.47c-.73.41-.95-.29-.26-.88l1.97-1.92c.85-.63.08-1.29-.77-.73-1.07.7-2.25,1.49-3.29,2.34-1.66,1.35-3.18,2.57-5.33,2.76-.35.03-.71.07-1.09.12-8.4,1.15-13.72,6.88-16.52,9.92-2.01,2.17-4.89,7.13-5.07,9.59-.05.67-.13,1.78.36,2.87.75,1.66,2.44,2.37,3.2,2.69,1.01.43,3.77,1.37,8.95-.23,3.78-1.17,5.61-3.07,10.95-6.35-2.85,4.41-5.14,8.12-5.52,9.28-1.01,3.09,5.62-5.49,5.29-2.18-.14,1.45,4.17-3.56,8.48-9.64,1.57-.12,3.18-.18,4.54-.19-2.27,3.39-4.43,6.78-6.19,9.83-.33.58-.55,1.22-.65,1.88-.04.31.33.51.56.3l.54-.48c.29-.26.6-.17.54.21l.26,1.83c-.06.34.38.55.62.29l14.51-20.24c1.09-1.33,1.85-2.19,3.02-3.22,1.38-1.22,3.1-2.36,4.9-2.94,1.45-.47,2.33.44-.69,2.84-1.72,1.36-6.94,5.98-8.55,10.91-.68,2.08-1.14,4.17.4,6.16,1.85,2.4,5.67,1.96,7.82,1.72,3.64-.42,6.14-2.07,8.3-3.51,2.15-1.43,3.65-2.87,5.24-4.65h0s3.47-.34,3.47-.34c0,0,.85-.07,2.22-.21l-4.77,8.87c-.17.35.33.64.57.33l1.84-2.9c.2-.26.62-.05.52.26l.09.97c.11.66,1.02.44,1.37-.13,1.39-2.27,4.58-8,5.86-8.1,2.11-.16,3.15-.33,3.79-.37.6-.03,1.17.29,1.44.82l.32.61,4.92,10.11c.34.51,1.69,2.82,1.69,2.82.28.12,1.23-.32,1.2-.62l-.71-3.59c-.02-.22.23-.38.43-.26,2.07,1.29,4.31,5.64,5.4,7.24.36.53,1.22.14,1.03-.47-2.21-6.96-10-17.57-10-17.57Zm-22.32-2.74c-2.99,3.86-9.69,10.1-13.8,9.37-1.89-.41-2.58-1.41-.72-4.81.76-1.35,5.45-7.13,10.59-10.94,1.57-1.16,3.32-1.11,4.41-.76,2.68,1.21,1.99,3.89-.48,7.14Zm5.18,1.06c1.7-2.24,2.17-3.45,2.43-4.33.33-1.1.85-2.83.44-4.52,0,0,0,0,0,0h0s0,0,0,0c.42-.08,1.95-.35,3.67-.47.52-.04,2.02-.13,3.95,0,.18.01.35.03.53.05l-6.28,8.62c-1.39.21-2.94.42-4.74.66Zm11.62-2.3c-.41.15-.82.28-1.22.41l5.31-6.55c.68.18,1.37.37,2.13.59,2.52.72,2.63.95,2.66,1.09.2,1.1-4.01,2.67-8.87,4.45Z"/>
  </g>
</svg>